<?xml version="1.0" encoding="utf-8"?>
<!-- Generator: Adobe Illustrator 27.3.1, SVG Export Plug-In . SVG Version: 6.00 Build 0)  -->
<svg version="1.1" id="Layer_1" xmlns="http://www.w3.org/2000/svg" xmlns:xlink="http://www.w3.org/1999/xlink" x="0px" y="0px"
	 viewBox="0 0 1500 468" style="enable-background:new 0 0 1500 468;" xml:space="preserve">
<style type="text/css">
	.st0{fill:none;stroke:#000000;stroke-miterlimit:10;}
	.st1{fill:none;stroke:#FFFFFF;stroke-width:4;stroke-miterlimit:10;}
	.st2{fill:#FFFFFF;}
</style>
<g>
	<g>
		<g>
			<path d="M244.96,255.99l18.21-21.79c10.6,8.68,23.68,14.63,37.28,14.63c13.47,0,19.69-5.22,19.69-12.07
				c0-10.09-8.33-12.53-21.6-18.09l-18.27-7.79c-15.54-5.91-29.72-17.82-29.72-38.23c0-23.22,20.92-41.79,51.38-41.79
				c16.87,0,33.91,6.32,46.57,18.36l-15.99,20c-9.87-7.09-18.61-10.95-32.31-10.95c-10.45,0-17.55,4.33-17.55,12.52
				c0,8.43,9.4,11.52,22.85,16.56l17.16,7.27c18.36,6.88,29.96,18.33,29.96,38.12c0,23.31-19.56,43.5-54.26,43.5
				C279.4,276.24,259.83,269.3,244.96,255.99z"/>
			<path d="M373.33,220.34c0-35.54,26.27-56.01,54.43-56.01s54.43,20.48,54.43,56.01c0,35.42-26.27,55.89-54.43,55.89
				S373.33,255.76,373.33,220.34z M449.78,220.34c0-18.51-7.44-30.46-22.02-30.46s-22.02,11.95-22.02,30.46
				c0,18.45,7.44,30.33,22.02,30.33S449.78,238.79,449.78,220.34z"/>
			<path d="M505.62,232.82v-65.91h31.68v61.84c0,14.15,3.78,20.51,15.56,20.51c7.86,0,13.42-2.8,20.69-12.16v-70.18h31.68v106.74
				h-25.87l-2.28-15.34h-0.86c-9.46,10.87-20.63,17.92-36,17.92C515.93,276.24,505.62,259.74,505.62,232.82z"/>
			<path d="M665.64,231.91v-84.15h-33.59v-24.82h65.27V233.2c0,13.2,8.49,17.48,17.4,17.48c4.94,0,10.15-1.04,16.63-3.49l7,23.28
				c-11.08,3.62-18.59,5.77-31.85,5.77C679.61,276.24,665.64,258.98,665.64,231.91z"/>
			<path d="M765.65,133.44h38.74c40.68,0,67.43,21.29,67.43,69.46c0,48.23-26.75,70.75-65.64,70.75h-40.53V133.44z M802.63,248.1
				c21.81,0,36.65-11.65,36.65-45.2c0-33.48-14.83-43.9-36.65-43.9h-5.25v89.1H802.63z"/>
			<path d="M997.22,215.56c0-29.01-17.33-51.23-50.25-51.23c-28.59,0-55.53,20.97-55.53,55.89c0,35.48,25.89,56.01,59.17,56.01
				c14.3,0,30.12-4.66,42.31-12.48l-10.49-19.07c-9.47,4.78-17.81,7.41-27.5,7.41c-17.5,0-28.81-6.92-31.93-22.37h72.9
				C996.32,227.09,997.22,221.36,997.22,215.56z M948.02,188.41c12.28,0,19.52,6.9,21.13,20.11h-45.77
				C926.56,195.11,935.59,188.41,948.02,188.41z"/>
			<path d="M1015.41,166.91h31.79l16.8,50.32c3.47,10.7,6.41,21.65,9.6,32.85h0.86c3.19-11.2,6.01-22.15,9.54-32.85l16.8-50.32
				h30.25l-39.12,106.74h-36.31L1015.41,166.91z"/>
			<path d="M1149.18,259.88l13.46-19.75c13.14,8.14,27.8,12.65,43.07,12.65c11.74,0,16.94-3.9,16.94-9.15
				c0-5.94-5.17-8.12-26.12-12.53c-29.03-6.22-40.57-16.87-40.57-33.35c0-19.89,18.57-33.42,49.05-33.42
				c19.03,0,35.1,7.48,46.21,14.58l-14.2,19.01c-10.77-6.51-23.13-10.2-34.92-10.2c-9.88,0-14.78,3.53-14.78,8.54
				c0,5.93,6.55,7.32,24.65,11.37c32.93,7.38,42.1,16.76,42.1,34.14c0,19.33-18.43,34.46-52.68,34.46
				C1182.34,276.24,1162.66,268.86,1149.18,259.88z"/>
		</g>
		<g>
			<path d="M340.05,323.87c0-7.24,5.32-11.4,11.78-11.4c3.62,0,6.01,1.57,7.78,3.3l-1.16,1.37c-1.83-1.73-3.92-2.9-6.58-2.9
				c-5.77,0-9.73,3.94-9.73,9.64c0,5.69,3.88,9.55,9.7,9.55c2.93,0,5.35-1.31,7.28-3.11l1.04,1.38c-2.24,2.1-5.02,3.49-8.4,3.49
				C345.05,335.18,340.05,331.02,340.05,323.87z"/>
			<path d="M379.5,313.01h1.7l0.23,5.34h0.09c2.33-3.46,5.85-5.88,10.17-5.88c1.46,0,2.97,0.19,4.36,0.9l-0.56,1.79
				c-1.6-0.56-2.38-0.79-4.09-0.79c-3.62,0-6.89,1.83-9.89,6.75v13.51h-2V313.01z"/>
			<path d="M412.31,329.26c0-4.84,4.86-7.13,16.59-8.17c-0.04-3.56-1.48-6.87-6.43-6.87c-3.26,0-6.42,1.68-8.18,2.94l-0.93-1.47
				c1.73-1.24,5.49-3.22,9.35-3.22c5.79,0,8.2,3.72,8.2,8.35v13.82h-1.7l-0.22-3.24h-0.1c-2.49,1.99-5.84,3.78-9.03,3.78
				C415.98,335.18,412.31,333.31,412.31,329.26z M428.9,329.54v-6.92c-11.01,0.98-14.54,3.06-14.54,6.53c0,3.1,2.91,4.29,5.82,4.29
				C422.96,333.44,425.85,332.11,428.9,329.54z"/>
			<path d="M449.41,313.2l6.52-0.19h11.93v1.74h-18.44V313.2z M455.9,310.41c0-5.45,2.66-8.71,8.11-8.71c1.93,0,3.84,0.31,6.04,1.33
				l-0.63,1.55c-2-0.93-3.3-1.13-5.32-1.13c-4.54,0-6.28,2.76-6.28,6.8v24.4h-1.92V310.41z"/>
			<path d="M490.38,326.55v-11.8h-6.54v-1.55l6.58-0.19l0.27-7.16h1.7v7.16h11.51v1.74h-11.51v11.95c0,4.21,1.21,6.73,6.03,6.73
				c2.26,0,4.01-0.44,5.75-1.12l0.55,1.53c-1.98,0.79-3.94,1.34-6.58,1.34C492.19,335.18,490.38,331.7,490.38,326.55z"/>
			<path d="M531.49,314.75h-10.82v-1.74h12.82v21.63h-2V314.75z M529.9,305.6c0-1.32,0.93-2.16,2.12-2.16
				c1.19,0,2.12,0.84,2.12,2.16c0,1.33-0.93,2.16-2.12,2.16C530.84,307.76,529.9,306.93,529.9,305.6z"/>
			<path d="M557.06,313.01h1.69l0.22,4.15h0.18c2.49-2.68,5.05-4.69,8.54-4.69c5.25,0,7.76,2.83,7.76,8.7v13.47h-2v-13.21
				c0-4.83-1.8-7.16-6.08-7.16c-3.07,0-5.19,1.6-8.3,4.87v15.5h-2V313.01z"/>
			<path d="M592.12,338.78c0-1.69,1.33-3.64,3.67-5.09v-0.18c-1.11-0.53-2.25-1.66-2.25-3.47c0-1.36,0.91-2.91,2.61-4.07v-0.18
				c-1.39-1.16-2.57-3-2.57-5.61c0-4.45,3.64-7.71,8.05-7.71c1.2,0,2.13,0.18,2.98,0.54h9.02v1.74h-6.53
				c1.32,1.27,2.54,3.18,2.54,5.46c0,4.42-3.57,7.56-8.01,7.56c-1.29,0-2.77-0.34-4.09-1.01c-1.28,0.77-2.11,1.85-2.11,3.01
				c0,2.07,1.96,3.01,4.98,3.01h5.37c5.5,0,7.87,1.38,7.87,4.87c0,3.74-4.43,7.4-11.44,7.4
				C595.48,345.06,592.12,342.55,592.12,338.78z M611.61,337.89c0-2.43-1.86-3.22-5.66-3.22h-5.13c-1.06,0-2.29-0.09-3.3-0.39
				c-2.6,1.39-3.48,2.98-3.48,4.54c0,2.62,2.64,4.59,8.05,4.59C608.03,343.4,611.61,340.6,611.61,337.89z M607.65,320.18
				c0-3.52-2.71-6.05-6.03-6.05c-3.31,0-6.03,2.53-6.03,6.05c0,3.55,2.72,6,6.03,6C604.94,326.18,607.65,323.72,607.65,320.18z"/>
			<path d="M664.35,323.87c0-7.24,5.32-11.4,11.78-11.4c3.62,0,6.01,1.57,7.78,3.3l-1.16,1.37c-1.83-1.73-3.92-2.9-6.58-2.9
				c-5.77,0-9.73,3.94-9.73,9.64c0,5.69,3.88,9.55,9.7,9.55c2.93,0,5.35-1.31,7.28-3.11l1.04,1.38c-2.24,2.1-5.02,3.49-8.4,3.49
				C669.35,335.18,664.35,331.02,664.35,323.87z"/>
			<path d="M699.48,323.87c0-7.24,4.82-11.4,10.48-11.4s10.48,4.16,10.48,11.4c0,7.15-4.82,11.31-10.48,11.31
				S699.48,331.02,699.48,323.87z M718.36,323.87c0-5.7-3.51-9.64-8.39-9.64s-8.39,3.94-8.39,9.64c0,5.69,3.51,9.55,8.39,9.55
				S718.36,329.56,718.36,323.87z"/>
			<path d="M735.51,323.87c0-6.99,4.79-11.4,10.17-11.4c2.71,0,4.94,1.13,7.1,3.06h0.09l-0.11-4.37v-8.92h2v32.4h-1.69l-0.22-3.21
				h-0.1c-1.9,1.98-4.68,3.75-7.72,3.75C739.36,335.18,735.51,331.17,735.51,323.87z M752.76,329.44v-12.02
				c-2.44-2.31-4.68-3.18-6.94-3.18c-4.57,0-8.22,4.19-8.22,9.61c0,5.75,2.89,9.55,7.72,9.55
				C747.85,333.41,750.37,332,752.76,329.44z"/>
			<path d="M771.97,323.85c0-7.05,5.18-11.38,10.84-11.38c5.91,0,9.67,3.8,9.67,10.01c0,0.56-0.02,1.11-0.12,1.66h-19.4v-1.7h18.54
				l-0.85,0.81c0-6.13-3.19-9.06-7.82-9.06c-4.51,0-8.81,3.52-8.81,9.6c0,6.27,4.35,9.67,9.48,9.67c2.94,0,5.24-0.94,7.26-2.33
				l0.83,1.51c-1.96,1.28-4.4,2.55-8.21,2.55C777.13,335.18,771.97,330.95,771.97,323.85z"/>
			<path d="M841.08,313.01h2.12l3.43,14.01c0.47,2.01,0.92,3.83,1.29,5.77h0.18c0.43-1.94,0.93-3.78,1.42-5.77l3.46-13.65h2.38
				l3.43,13.65c0.5,2.01,1.02,3.83,1.45,5.77h0.18c0.46-1.94,0.88-3.77,1.32-5.77l3.4-14.01h1.98l-5.47,21.63h-2.67l-3.38-13.07
				c-0.49-1.93-0.88-3.96-1.41-6.22h-0.18c-0.46,2.27-0.85,4.37-1.41,6.29l-3.29,13.01h-2.67L841.08,313.01z"/>
			<path d="M891.82,314.75H881v-1.74h12.82v21.63h-2V314.75z M890.24,305.6c0-1.32,0.93-2.16,2.12-2.16c1.19,0,2.12,0.84,2.12,2.16
				c0,1.33-0.93,2.16-2.12,2.16C891.17,307.76,890.24,306.93,890.24,305.6z"/>
			<path d="M922.78,326.55v-11.8h-6.54v-1.55l6.58-0.19l0.27-7.16h1.7v7.16h11.51v1.74h-11.51v11.95c0,4.21,1.21,6.73,6.03,6.73
				c2.26,0,4.01-0.44,5.75-1.12l0.55,1.53c-1.98,0.79-3.94,1.34-6.58,1.34C924.59,335.18,922.78,331.7,922.78,326.55z"/>
			<path d="M953.43,302.24h2v9.39l-0.13,5.67h0.1c2.57-2.83,5.2-4.84,8.65-4.84c5.25,0,7.76,2.83,7.76,8.7v13.47h-2v-13.21
				c0-4.83-1.8-7.16-6.08-7.16c-3.07,0-5.19,1.6-8.3,4.87v15.5h-2V302.24z"/>
			<path d="M1024.44,331.76l1.06-1.46c2.39,1.87,5.27,3.17,9.8,3.17c4.42,0,6.68-1.99,6.68-4.26c0-1.96-0.76-3.53-7.62-4.91
				c-5.49-1.11-8.62-2.88-8.62-6.07c0-3.12,2.65-5.76,8.44-5.76c2.91,0,6.24,1.14,8.3,2.66l-1.08,1.44c-1.93-1.43-4.42-2.4-7.38-2.4
				c-4.71,0-6.23,1.91-6.23,3.94c0,2.29,2.22,3.42,7.12,4.44c7.48,1.58,9.14,3.31,9.14,6.53c0,3.26-3.24,6.11-8.94,6.11
				C1030.66,335.18,1027,333.57,1024.44,331.76z"/>
			<path d="M1059.81,323.87c0-7.24,4.82-11.4,10.48-11.4s10.48,4.16,10.48,11.4c0,7.15-4.82,11.31-10.48,11.31
				S1059.81,331.02,1059.81,323.87z M1078.69,323.87c0-5.7-3.51-9.64-8.39-9.64s-8.39,3.94-8.39,9.64c0,5.69,3.51,9.55,8.39,9.55
				S1078.69,329.56,1078.69,323.87z"/>
			<path d="M1096.71,326.48v-13.47h2v13.21c0,4.82,1.8,7.16,6.09,7.16c3.05,0,5.32-1.53,8.28-4.9v-15.47h2v21.63h-1.7l-0.22-4.19
				h-0.18c-2.34,2.73-5.04,4.73-8.51,4.73C1099.23,335.18,1096.71,332.35,1096.71,326.48z"/>
			<path d="M1141.05,328.12v-24.14h-8.21v-1.74h10.21v26.15c0,3.42,1.65,5.03,4.72,5.03c1.39,0,2.88-0.35,4.46-1.12l0.65,1.55
				c-1.86,0.89-3.24,1.34-5.4,1.34C1143.38,335.18,1141.05,333.04,1141.05,328.12z"/>
		</g>
		<line class="st0" x1="250.12" y1="324.46" x2="316.12" y2="324.46"/>
		<line class="st0" x1="1184.88" y1="324.46" x2="1250.88" y2="324.46"/>
	</g>
	<path d="M115.38,246.48v-24.96l84.34-53.79v33.14l-54.22,32.7v0.86l54.22,32.71v33.13L115.38,246.48z"/>
	<path d="M1300.27,267.14l54.22-32.71v-0.86l-54.22-32.7v-33.14l84.34,53.79v24.96l-84.34,53.79V267.14z"/>
	<g>
		<polygon class="st2" points="188.26,220.52 153.97,211.42 160.89,176.62 164.81,177.4 158.62,208.52 189.29,216.66 		"/>
	</g>
	<g>
		<polygon class="st2" points="139.28,276.08 138.15,272.24 168.6,263.33 161.62,232.38 165.52,231.5 173.33,266.11 		"/>
	</g>
	<g>
		<polygon class="st2" points="1356.92,188.51 1358.21,192.29 1328.2,202.56 1336.55,233.17 1332.69,234.22 1323.35,199.99 		"/>
	</g>
	<g>
		<polygon class="st2" points="1315.91,243.05 1349.68,253.96 1340.91,288.35 1337.03,287.36 1344.87,256.61 1314.68,246.85 		"/>
	</g>
</g>
</svg>
