<?xml version="1.0" encoding="UTF-8"?>
<svg id="Layer_1" data-name="Layer 1" xmlns="http://www.w3.org/2000/svg" viewBox="0 0 1500 468">
  <defs>
    <style>
      .cls-1 {
        fill: #fff;
      }
    </style>
  </defs>
  <g id="title">
    <path class="cls-1" d="m244.96,255.99l18.21-21.79c10.6,8.68,23.68,14.63,37.28,14.63s19.69-5.22,19.69-12.07c0-10.09-8.33-12.53-21.6-18.09l-18.27-7.79c-15.54-5.91-29.72-17.82-29.72-38.23,0-23.22,20.92-41.79,51.38-41.79,16.87,0,33.91,6.32,46.57,18.36l-15.99,20c-9.87-7.09-18.61-10.95-32.31-10.95-10.45,0-17.55,4.33-17.55,12.52s9.4,11.52,22.85,16.56l17.16,7.27c18.36,6.88,29.96,18.33,29.96,38.12,0,23.31-19.56,43.5-54.26,43.5-18.95,0-38.51-6.93-53.38-20.25Z"/>
    <path class="cls-1" d="m373.33,220.34c0-35.54,26.27-56.01,54.43-56.01s54.43,20.48,54.43,56.01-26.27,55.89-54.43,55.89-54.43-20.48-54.43-55.89Zm76.45,0c0-18.51-7.44-30.46-22.02-30.46s-22.02,11.95-22.02,30.46,7.44,30.33,22.02,30.33,22.02-11.89,22.02-30.33Z"/>
    <path class="cls-1" d="m505.62,232.82v-65.91h31.68v61.84c0,14.15,3.78,20.51,15.56,20.51,7.86,0,13.42-2.8,20.69-12.16v-70.18h31.68v106.74h-25.87l-2.28-15.34h-.86c-9.46,10.87-20.63,17.92-36,17.92-24.28,0-34.6-16.49-34.6-43.41Z"/>
    <path class="cls-1" d="m665.64,231.91v-84.15h-33.59v-24.82h65.27v110.26c0,13.2,8.49,17.48,17.4,17.48,4.94,0,10.15-1.04,16.63-3.49l7,23.28c-11.08,3.62-18.59,5.77-31.85,5.77-26.88,0-40.85-17.26-40.85-44.33Z"/>
    <path class="cls-1" d="m765.65,133.44h38.74c40.68,0,67.43,21.29,67.43,69.46s-26.75,70.75-65.64,70.75h-40.53v-140.22Zm36.98,114.66c21.81,0,36.65-11.65,36.65-45.2s-14.83-43.9-36.65-43.9h-5.25v89.1h5.25Z"/>
    <path class="cls-1" d="m997.22,215.56c0-29.01-17.33-51.23-50.25-51.23-28.59,0-55.53,20.97-55.53,55.89s25.89,56.01,59.17,56.01c14.3,0,30.12-4.66,42.31-12.48l-10.49-19.07c-9.47,4.78-17.81,7.41-27.5,7.41-17.5,0-28.81-6.92-31.93-22.37h72.9c.43-2.64,1.33-8.38,1.33-14.17Zm-49.2-27.15c12.28,0,19.52,6.9,21.13,20.11h-45.77c3.18-13.4,12.21-20.11,24.64-20.11Z"/>
    <path class="cls-1" d="m1015.41,166.91h31.79l16.8,50.32c3.47,10.7,6.41,21.65,9.6,32.85h.86c3.19-11.2,6.01-22.15,9.54-32.85l16.8-50.32h30.25l-39.12,106.74h-36.31l-40.23-106.74Z"/>
    <path class="cls-1" d="m1149.18,259.88l13.46-19.75c13.14,8.14,27.8,12.65,43.07,12.65,11.74,0,16.94-3.9,16.94-9.15,0-5.94-5.17-8.12-26.12-12.53-29.03-6.22-40.57-16.87-40.57-33.35,0-19.89,18.57-33.42,49.05-33.42,19.03,0,35.1,7.48,46.21,14.58l-14.2,19.01c-10.77-6.51-23.13-10.2-34.92-10.2-9.88,0-14.78,3.53-14.78,8.54,0,5.93,6.55,7.32,24.65,11.37,32.93,7.38,42.1,16.76,42.1,34.14,0,19.33-18.43,34.46-52.68,34.46-19.04,0-38.73-7.38-52.2-16.35Z"/>
  </g>
  <g id="slogan">
    <path class="cls-1" d="m340.05,323.87c0-7.24,5.32-11.4,11.78-11.4,3.62,0,6.01,1.57,7.78,3.3l-1.16,1.37c-1.83-1.73-3.92-2.9-6.58-2.9-5.77,0-9.73,3.94-9.73,9.64s3.88,9.55,9.7,9.55c2.93,0,5.35-1.31,7.28-3.11l1.04,1.38c-2.24,2.1-5.02,3.49-8.4,3.49-6.72,0-11.72-4.16-11.72-11.31Z"/>
    <path class="cls-1" d="m379.5,313.01h1.7l.23,5.34h.09c2.33-3.46,5.85-5.88,10.17-5.88,1.46,0,2.97.19,4.36.9l-.56,1.79c-1.6-.56-2.38-.79-4.09-.79-3.62,0-6.89,1.83-9.89,6.75v13.51h-2v-21.63Z"/>
    <path class="cls-1" d="m412.31,329.26c0-4.84,4.86-7.13,16.59-8.17-.04-3.56-1.48-6.87-6.43-6.87-3.26,0-6.42,1.68-8.18,2.94l-.93-1.47c1.73-1.24,5.49-3.22,9.35-3.22,5.79,0,8.2,3.72,8.2,8.35v13.82h-1.7l-.22-3.24h-.1c-2.49,1.99-5.84,3.78-9.03,3.78-3.87,0-7.54-1.87-7.54-5.92Zm16.59.28v-6.92c-11.01.98-14.54,3.06-14.54,6.53,0,3.1,2.91,4.29,5.82,4.29s5.66-1.33,8.71-3.9Z"/>
    <path class="cls-1" d="m449.41,313.2l6.52-.19h11.93v1.74h-18.44v-1.55Zm6.49-2.79c0-5.45,2.66-8.71,8.11-8.71,1.93,0,3.84.31,6.04,1.33l-.63,1.55c-2-.93-3.3-1.13-5.32-1.13-4.54,0-6.28,2.76-6.28,6.8v24.4h-1.92v-24.23Z"/>
    <path class="cls-1" d="m490.38,326.55v-11.8h-6.54v-1.55l6.58-.19.27-7.16h1.7v7.16h11.51v1.74h-11.51v11.95c0,4.21,1.21,6.73,6.03,6.73,2.26,0,4.01-.44,5.75-1.12l.55,1.53c-1.98.79-3.94,1.34-6.58,1.34-5.94,0-7.75-3.49-7.75-8.63Z"/>
    <path class="cls-1" d="m531.49,314.75h-10.82v-1.74h12.82v21.63h-2v-19.89Zm-1.58-9.15c0-1.32.93-2.16,2.12-2.16s2.12.84,2.12,2.16-.93,2.16-2.12,2.16-2.12-.83-2.12-2.16Z"/>
    <path class="cls-1" d="m557.06,313.01h1.69l.22,4.15h.18c2.49-2.68,5.05-4.69,8.54-4.69,5.25,0,7.76,2.83,7.76,8.7v13.47h-2v-13.21c0-4.83-1.8-7.16-6.08-7.16-3.07,0-5.19,1.6-8.3,4.87v15.5h-2v-21.63Z"/>
    <path class="cls-1" d="m592.12,338.78c0-1.69,1.33-3.64,3.67-5.09v-.18c-1.11-.53-2.25-1.66-2.25-3.47,0-1.36.91-2.91,2.61-4.07v-.18c-1.39-1.16-2.57-3-2.57-5.61,0-4.45,3.64-7.71,8.05-7.71,1.2,0,2.13.18,2.98.54h9.02v1.74h-6.53c1.32,1.27,2.54,3.18,2.54,5.46,0,4.42-3.57,7.56-8.01,7.56-1.29,0-2.77-.34-4.09-1.01-1.28.77-2.11,1.85-2.11,3.01,0,2.07,1.96,3.01,4.98,3.01h5.37c5.5,0,7.87,1.38,7.87,4.87,0,3.74-4.43,7.4-11.44,7.4s-10.09-2.5-10.09-6.28Zm19.49-.89c0-2.43-1.86-3.22-5.66-3.22h-5.13c-1.06,0-2.29-.09-3.3-.39-2.6,1.39-3.48,2.98-3.48,4.54,0,2.62,2.64,4.59,8.05,4.59,5.94,0,9.52-2.81,9.52-5.52Zm-3.96-17.71c0-3.52-2.71-6.05-6.03-6.05s-6.03,2.53-6.03,6.05,2.72,6,6.03,6,6.03-2.45,6.03-6Z"/>
    <path class="cls-1" d="m664.35,323.87c0-7.24,5.32-11.4,11.78-11.4,3.62,0,6.01,1.57,7.78,3.3l-1.16,1.37c-1.83-1.73-3.92-2.9-6.58-2.9-5.77,0-9.73,3.94-9.73,9.64s3.88,9.55,9.7,9.55c2.93,0,5.35-1.31,7.28-3.11l1.04,1.38c-2.24,2.1-5.02,3.49-8.4,3.49-6.72,0-11.72-4.16-11.72-11.31Z"/>
    <path class="cls-1" d="m699.48,323.87c0-7.24,4.82-11.4,10.48-11.4s10.48,4.16,10.48,11.4-4.82,11.31-10.48,11.31-10.48-4.16-10.48-11.31Zm18.88,0c0-5.7-3.51-9.64-8.39-9.64s-8.39,3.94-8.39,9.64,3.51,9.55,8.39,9.55,8.39-3.86,8.39-9.55Z"/>
    <path class="cls-1" d="m735.51,323.87c0-6.99,4.79-11.4,10.17-11.4,2.71,0,4.94,1.13,7.1,3.06h.09l-.11-4.37v-8.92h2v32.4h-1.69l-.22-3.21h-.1c-1.9,1.98-4.68,3.75-7.72,3.75-5.68,0-9.52-4.01-9.52-11.31Zm17.25,5.57v-12.02c-2.44-2.31-4.68-3.18-6.94-3.18-4.57,0-8.22,4.19-8.22,9.61,0,5.75,2.89,9.55,7.72,9.55,2.52,0,5.04-1.41,7.44-3.96Z"/>
    <path class="cls-1" d="m771.97,323.85c0-7.05,5.18-11.38,10.84-11.38s9.67,3.8,9.67,10.01c0,.56-.02,1.11-.12,1.66h-19.4v-1.7h18.54l-.85.81c0-6.13-3.19-9.06-7.82-9.06s-8.81,3.52-8.81,9.6,4.35,9.67,9.48,9.67c2.94,0,5.24-.94,7.26-2.33l.83,1.51c-1.96,1.28-4.4,2.55-8.21,2.55-6.25,0-11.41-4.23-11.41-11.33Z"/>
    <path class="cls-1" d="m841.08,313.01h2.12l3.43,14.01c.47,2.01.92,3.83,1.29,5.77h.18c.43-1.94.93-3.78,1.42-5.77l3.46-13.65h2.38l3.43,13.65c.5,2.01,1.02,3.83,1.45,5.77h.18c.46-1.94.88-3.77,1.32-5.77l3.4-14.01h1.98l-5.47,21.63h-2.67l-3.38-13.07c-.49-1.93-.88-3.96-1.41-6.22h-.18c-.46,2.27-.85,4.37-1.41,6.29l-3.29,13.01h-2.67l-5.56-21.63Z"/>
    <path class="cls-1" d="m891.82,314.75h-10.82v-1.74h12.82v21.63h-2v-19.89Zm-1.58-9.15c0-1.32.93-2.16,2.12-2.16s2.12.84,2.12,2.16-.93,2.16-2.12,2.16-2.12-.83-2.12-2.16Z"/>
    <path class="cls-1" d="m922.78,326.55v-11.8h-6.54v-1.55l6.58-.19.27-7.16h1.7v7.16h11.51v1.74h-11.51v11.95c0,4.21,1.21,6.73,6.03,6.73,2.26,0,4.01-.44,5.75-1.12l.55,1.53c-1.98.79-3.94,1.34-6.58,1.34-5.94,0-7.75-3.49-7.75-8.63Z"/>
    <path class="cls-1" d="m953.43,302.24h2v9.39l-.13,5.67h.1c2.57-2.83,5.2-4.84,8.65-4.84,5.25,0,7.76,2.83,7.76,8.7v13.47h-2v-13.21c0-4.83-1.8-7.16-6.08-7.16-3.07,0-5.19,1.6-8.3,4.87v15.5h-2v-32.4Z"/>
    <path class="cls-1" d="m1024.44,331.76l1.06-1.46c2.39,1.87,5.27,3.17,9.8,3.17s6.68-1.99,6.68-4.26c0-1.96-.76-3.53-7.62-4.91-5.49-1.11-8.62-2.88-8.62-6.07s2.65-5.76,8.44-5.76c2.91,0,6.24,1.14,8.3,2.66l-1.08,1.44c-1.93-1.43-4.42-2.4-7.38-2.4-4.71,0-6.23,1.91-6.23,3.94,0,2.29,2.22,3.42,7.12,4.44,7.48,1.58,9.14,3.31,9.14,6.53s-3.24,6.11-8.94,6.11c-4.44,0-8.11-1.61-10.67-3.42Z"/>
    <path class="cls-1" d="m1059.81,323.87c0-7.24,4.82-11.4,10.48-11.4s10.48,4.16,10.48,11.4-4.82,11.31-10.48,11.31-10.48-4.16-10.48-11.31Zm18.88,0c0-5.7-3.51-9.64-8.39-9.64s-8.39,3.94-8.39,9.64,3.51,9.55,8.39,9.55,8.39-3.86,8.39-9.55Z"/>
    <path class="cls-1" d="m1096.71,326.48v-13.47h2v13.21c0,4.82,1.8,7.16,6.09,7.16,3.05,0,5.32-1.53,8.28-4.9v-15.47h2v21.63h-1.7l-.22-4.19h-.18c-2.34,2.73-5.04,4.73-8.51,4.73-5.25,0-7.76-2.83-7.76-8.7Z"/>
    <path class="cls-1" d="m1141.05,328.12v-24.14h-8.21v-1.74h10.21v26.15c0,3.42,1.65,5.03,4.72,5.03,1.39,0,2.88-.35,4.46-1.12l.65,1.55c-1.86.89-3.24,1.34-5.4,1.34-4.09,0-6.43-2.15-6.43-7.06Z"/>
  </g>
  <g id="leftLine">
    <rect class="cls-1" x="250.12" y="323.46" width="66" height="2"/>
  </g>
  <g id="rightLine">
    <rect class="cls-1" x="1184.88" y="323.46" width="66" height="2"/>
  </g>
  <g id="leftArrow">
    <polygon class="cls-1" points="168.6 263.33 164.7 246.01 145.51 234.43 145.51 233.57 173.59 216.63 153.97 211.42 157.27 194.81 115.38 221.52 115.38 246.48 150.23 268.71 168.6 263.33"/>
    <polygon class="cls-1" points="173.33 266.11 154.71 271.56 199.73 300.27 199.73 267.14 169.44 248.87 173.33 266.11"/>
    <polygon class="cls-1" points="158.62 208.52 178.36 213.75 199.73 200.86 199.73 167.73 161.94 191.83 158.62 208.52"/>
  </g>
  <g id="rightArrow">
    <polygon class="cls-1" points="1323.35 199.99 1341.25 193.87 1300.27 167.73 1300.27 200.86 1328.18 217.7 1323.35 199.99"/>
    <polygon class="cls-1" points="1345.57 196.62 1328.2 202.56 1333.14 220.69 1354.49 233.57 1354.49 234.43 1331.73 248.16 1349.68 253.96 1345.17 271.64 1384.62 246.48 1384.62 221.52 1345.57 196.62"/>
    <polygon class="cls-1" points="1344.87 256.61 1327.19 250.9 1300.27 267.14 1300.27 300.27 1340.24 274.78 1344.87 256.61"/>
  </g>
</svg>